<svg width="225" height="217" viewBox="0 0 225 217" fill="none" xmlns="http://www.w3.org/2000/svg">
<path d="M77.2102 42.449C79.938 40.1418 83.6894 39.4652 87.0514 40.674L154.229 64.8279C157.591 66.0367 160.053 68.9473 160.687 72.4632L173.358 142.718C173.992 146.234 172.702 149.821 169.975 152.128L115.468 198.229C112.74 200.536 108.988 201.213 105.627 200.004L38.4487 175.85C35.0867 174.641 32.625 171.731 31.9909 168.215L19.3198 97.96C18.6857 94.4441 19.9755 90.8569 22.7033 88.5498L77.2102 42.449Z" fill="#BDD9BF"/>
<g style="mix-blend-mode:multiply" opacity="0.9">
<rect x="52.8196" y="42.765" width="117" height="141" rx="5" transform="rotate(-2.636 52.8196 42.765)" fill="#FFC857"/>
</g>
<rect opacity="0.7" x="52.8196" y="42.765" width="117" height="141" rx="5" transform="rotate(-2.636 52.8196 42.765)" fill="#FFC857"/>
<rect x="66" y="31" width="115" height="139" rx="4" fill="white" stroke="black" stroke-width="2"/>
<rect x="87" y="58" width="74" height="5" rx="2.5" fill="#006494"/>
<rect x="87" y="69" width="74" height="5" rx="2.5" fill="#006494"/>
<rect x="87" y="80" width="74" height="5" rx="2.5" fill="#006494"/>
<rect x="87" y="128" width="74" height="5" rx="2.5" fill="#006494"/>
<rect x="87" y="139" width="74" height="5" rx="2.5" fill="#006494"/>
<rect x="87" y="93" width="46" height="5" rx="2.5" fill="#006494"/>
<rect x="87" y="104" width="46" height="5" rx="2.5" fill="#006494"/>
<rect x="87" y="115" width="46" height="5" rx="2.5" fill="#006494"/>
<circle cx="194.5" cy="28.5" r="8.5" fill="#BDD9BF"/>
<g style="mix-blend-mode:multiply">
<circle cx="38.5" cy="79.5" r="9.5" fill="#BDD9BF"/>
</g>
<path d="M194.689 26.4876C196.482 26.4876 197.936 25.0342 197.936 23.2414C197.936 21.4486 196.482 19.9953 194.689 19.9953C192.897 19.9953 191.443 21.4486 191.443 23.2414C191.443 25.0342 192.897 26.4876 194.689 26.4876Z" stroke="black" stroke-width="2" stroke-linecap="round" stroke-linejoin="round"/>
<path d="M194.69 30.4828C190.69 30.4828 187.448 27.2407 187.448 23.2414C187.448 19.2421 190.69 16 194.69 16C201.494 16 201.931 20.3698 201.931 23.2414V24.4899C201.931 25.5932 201.037 26.4875 199.933 26.4875C198.83 26.4875 197.936 25.5932 197.936 24.4899V19.9952" stroke="black" stroke-width="2" stroke-linecap="round" stroke-linejoin="round"/>
<path d="M43.3636 65.2273V77.25C43.3636 79.5605 41.4109 81.4318 39 81.4318C36.5891 81.4318 34.6364 79.5605 34.6364 77.25V64.1818C34.6364 62.7391 35.8582 61.5682 37.3636 61.5682C38.8691 61.5682 40.0909 62.7391 40.0909 64.1818V75.1591C40.0909 75.7341 39.6 76.2045 39 76.2045C38.4 76.2045 37.9091 75.7341 37.9091 75.1591V65.2273H36.2727V75.1591C36.2727 76.6018 37.4945 77.7727 39 77.7727C40.5055 77.7727 41.7273 76.6018 41.7273 75.1591V64.1818C41.7273 61.8714 39.7745 60 37.3636 60C34.9527 60 33 61.8714 33 64.1818V77.25C33 80.4282 35.6836 83 39 83C42.3164 83 45 80.4282 45 77.25V65.2273H43.3636Z" fill="black"/>
<path d="M31 19.3677L38.5931 25.9506" stroke="#FFC857" stroke-width="3" stroke-linecap="round"/>
<path d="M67.8838 6L62.0671 14.1948" stroke="#FFC857" stroke-width="3" stroke-linecap="round"/>
<path d="M223.192 63.0681L217 66.9041" stroke="#DA5E5C" stroke-width="3" stroke-linecap="round"/>
<circle cx="197.5" cy="55.5" r="3.5" stroke="#FFC857" stroke-width="2"/>
<circle cx="52.5" cy="44.5" r="3.5" stroke="#F46F52" stroke-width="2"/>
<rect x="199.845" y="81" width="9.29605" height="9.29605" transform="rotate(47.4195 199.845 81)" fill="#F46F52"/>
<rect x="97.7853" y="1.41295" width="7.29605" height="7.29605" transform="rotate(47.4195 97.7853 1.41295)" stroke="#F46F52" stroke-width="2"/>
</svg>
